<svg xmlns="http://www.w3.org/2000/svg" xmlns:xlink="http://www.w3.org/1999/xlink" viewBox="0 0 200 60" pointer-events="none" xmlns:v="https://vecta.io/nano"><path fill="red" d="M63 14.87c-.72-2.7-2.85-4.83-5.56-5.56C52.54 8 32.88 8 32.88 8S13.23 8 8.32 9.31c-2.7.72-4.83 2.85-5.56 5.56C1.45 19.77 1.45 30 1.45 30s0 10.23 1.31 15.13c.72 2.7 2.85 4.83 5.56 5.56C13.23 52 32.88 52 32.88 52s19.66 0 24.56-1.31c2.7-.72 4.83-2.85 5.56-5.56C64.31 40.23 64.31 30 64.31 30s0-10.23-1.31-15.13z"/><path fill="#fff" d="M26.6 39.43L42.93 30 26.6 20.57z"/><path d="M92.69 48.03c-1.24-.84-2.13-2.14-2.65-3.91s-.79-4.12-.79-7.06v-4c0-2.97.3-5.35.9-7.15s1.54-3.11 2.81-3.93 2.94-1.24 5.01-1.24c2.04 0 3.67.42 4.9 1.26s2.13 2.15 2.7 3.93.85 4.16.85 7.12v4c0 2.94-.28 5.3-.83 7.08s-1.45 3.09-2.7 3.91c-1.24.82-2.93 1.24-5.06 1.24-2.18.01-3.9-.41-5.14-1.25zm6.97-4.32c.34-.9.52-2.37.52-4.4v-8.59c0-1.98-.17-3.42-.52-4.34-.34-.91-.95-1.37-1.82-1.37-.84 0-1.43.46-1.78 1.37-.34.91-.52 2.36-.52 4.34v8.59c0 2.04.16 3.51.49 4.4.33.9.93 1.35 1.8 1.35.88 0 1.48-.45 1.83-1.35zm88.5-6.58v1.39l.16 3.98c.1.88.32 1.53.65 1.93s.84.61 1.53.61c.93 0 1.57-.36 1.91-1.08s.53-1.92.56-3.6l5.35.31c.03.24.04.57.04.99 0 2.55-.7 4.45-2.09 5.71s-3.36 1.89-5.91 1.89c-3.06 0-5.2-.96-6.43-2.88s-1.84-4.88-1.84-8.9v-4.81c0-4.14.64-7.15 1.91-9.06 1.27-1.9 3.45-2.85 6.54-2.85 2.13 0 3.76.39 4.9 1.17s1.94 1.99 2.41 3.64c.46 1.65.7 3.93.7 6.83v4.72h-10.39zm.79-11.6c-.31.39-.52 1.03-.63 1.91s-.16 2.23-.16 4.02v1.98h4.54v-1.98l-.18-4.02c-.12-.91-.34-1.56-.65-1.93s-.8-.56-1.46-.56c-.66-.01-1.15.19-1.46.58zM77.59 36.61l-7.06-25.49h6.16l2.47 11.55 1.39 7.28h.18l1.39-7.24 2.56-11.6h6.16l-7.14 25.5v12.23h-6.11V36.61z"/><use xlink:href="#B"/><use xlink:href="#B" x="31.82"/><path d="M143.31 16.11h-6.16v32.72h-6.07V16.11h-6.16v-4.99h18.38v4.99zm35.49 9.58c-.38-1.74-.98-3-1.82-3.78s-1.99-1.17-3.46-1.17c-1.14 0-2.2.32-3.19.97-.99.64-1.75 1.49-2.29 2.54h-.05V9.73h-5.98v39.11h5.12l.63-2.61h.13c.48.93 1.2 1.66 2.16 2.2s2.02.81 3.19.81c2.1 0 3.64-.97 4.63-2.9s1.48-4.95 1.48-9.06v-4.36c.01-3.08-.18-5.49-.55-7.23zm-5.69 11.24c0 2.01-.08 3.58-.25 4.72-.16 1.14-.44 1.95-.83 2.43s-.91.72-1.57.72a2.91 2.91 0 0 1-1.42-.36c-.43-.24-.79-.6-1.06-1.08V27.71c.21-.75.57-1.36 1.08-1.84s1.06-.72 1.66-.72c.63 0 1.12.25 1.46.74s.58 1.33.72 2.49c.13 1.17.2 2.83.2 4.99v3.56z"/><defs ><path id="B" d="M126.45 21.28v27.55h-4.85l-.54-3.37h-.13c-1.32 2.55-3.3 3.82-5.93 3.82-1.83 0-3.18-.6-4.05-1.8s-1.3-3.07-1.3-5.62V21.28h6.2v20.23c0 1.23.13 2.11.4 2.63s.72.79 1.35.79c.54 0 1.06-.16 1.55-.49s.86-.75 1.1-1.26v-21.9h6.2z"/></defs></svg>